<svg width="20" height="20" viewBox="14 13 20 20" fill="none" xmlns="http://www.w3.org/2000/svg">
<path fill-rule="evenodd" clip-rule="evenodd" d="M32.64 23.2045C32.64 22.5664 32.5827 21.9527 32.4764 21.3636H24V24.845H28.8436C28.635 25.97 28.0009 26.9232 27.0477 27.5614V29.8195H29.9564C31.6582 28.2527 32.64 25.9455 32.64 23.2045Z" fill="#4285F4"/>
<path fill-rule="evenodd" clip-rule="evenodd" d="M24 32C26.43 32 28.4673 31.1941 29.9564 29.8195L27.0477 27.5614C26.2418 28.1014 25.2109 28.4205 24 28.4205C21.6559 28.4205 19.6718 26.8373 18.9641 24.71H15.9573V27.0418C17.4382 29.9832 20.4818 32 24 32Z" fill="#34A853"/>
<path fill-rule="evenodd" clip-rule="evenodd" d="M18.9641 24.71C18.7841 24.17 18.6818 23.5932 18.6818 23C18.6818 22.4068 18.7841 21.83 18.9641 21.29V18.9582H15.9573C15.3477 20.1732 15 21.5477 15 23C15 24.4523 15.3477 25.8268 15.9573 27.0418L18.9641 24.71Z" fill="#FBBC05"/>
<path fill-rule="evenodd" clip-rule="evenodd" d="M24 17.5795C25.3214 17.5795 26.5077 18.0336 27.4405 18.9255L30.0218 16.3441C28.4632 14.8918 26.4259 14 24 14C20.4818 14 17.4382 16.0168 15.9573 18.9582L18.9641 21.29C19.6718 19.1627 21.6559 17.5795 24 17.5795Z" fill="#EA4335"/>
</svg>
